<mxfile host="app.diagrams.net" modified="2023-11-27T07:02:06.258Z" agent="Mozilla/5.0 (Windows NT 10.0; Win64; x64) AppleWebKit/537.36 (KHTML, like Gecko) Chrome/119.0.0.0 Safari/537.36 Edg/119.0.0.0" etag="kezY5fL816VpTX2CDmMG" version="22.1.4" type="device">
  <diagram name="Страница — 1" id="e6d-LzjELbtayF8ROmFh">
    <mxGraphModel dx="1045" dy="639" grid="1" gridSize="10" guides="1" tooltips="1" connect="1" arrows="1" fold="1" page="1" pageScale="1" pageWidth="827" pageHeight="1169" math="0" shadow="0">
      <root>
        <mxCell id="0" />
        <mxCell id="1" parent="0" />
        <mxCell id="jPC34qyZusBdzCv74OJ4-116" value="" style="edgeStyle=orthogonalEdgeStyle;rounded=0;orthogonalLoop=1;jettySize=auto;html=1;" parent="1" source="jPC34qyZusBdzCv74OJ4-113" target="jPC34qyZusBdzCv74OJ4-115" edge="1">
          <mxGeometry relative="1" as="geometry" />
        </mxCell>
        <mxCell id="jPC34qyZusBdzCv74OJ4-113" value="&lt;font style=&quot;font-size: 10px;&quot;&gt;void individualTask(double **arr, int *len)&lt;/font&gt;" style="strokeWidth=1;html=1;shape=mxgraph.flowchart.terminator;whiteSpace=wrap;" parent="1" vertex="1">
          <mxGeometry x="175" y="50" width="100" height="60" as="geometry" />
        </mxCell>
        <mxCell id="jPC34qyZusBdzCv74OJ4-118" value="" style="edgeStyle=orthogonalEdgeStyle;rounded=0;orthogonalLoop=1;jettySize=auto;html=1;" parent="1" source="jPC34qyZusBdzCv74OJ4-115" target="jPC34qyZusBdzCv74OJ4-117" edge="1">
          <mxGeometry relative="1" as="geometry" />
        </mxCell>
        <mxCell id="jPC34qyZusBdzCv74OJ4-120" value="" style="edgeStyle=orthogonalEdgeStyle;rounded=0;orthogonalLoop=1;jettySize=auto;html=1;" parent="1" source="jPC34qyZusBdzCv74OJ4-115" target="jPC34qyZusBdzCv74OJ4-119" edge="1">
          <mxGeometry relative="1" as="geometry" />
        </mxCell>
        <mxCell id="jPC34qyZusBdzCv74OJ4-115" value="*len == 0?" style="rhombus;whiteSpace=wrap;html=1;" parent="1" vertex="1">
          <mxGeometry x="175" y="170" width="100" height="60" as="geometry" />
        </mxCell>
        <mxCell id="jPC34qyZusBdzCv74OJ4-117" value="&lt;font style=&quot;font-size: 10px;&quot;&gt;Конец&lt;/font&gt;" style="strokeWidth=1;html=1;shape=mxgraph.flowchart.terminator;whiteSpace=wrap;" parent="1" vertex="1">
          <mxGeometry x="330" y="1010" width="100" height="60" as="geometry" />
        </mxCell>
        <mxCell id="jPC34qyZusBdzCv74OJ4-124" value="" style="edgeStyle=orthogonalEdgeStyle;rounded=0;orthogonalLoop=1;jettySize=auto;html=1;" parent="1" source="jPC34qyZusBdzCv74OJ4-119" target="jPC34qyZusBdzCv74OJ4-123" edge="1">
          <mxGeometry relative="1" as="geometry" />
        </mxCell>
        <mxCell id="jPC34qyZusBdzCv74OJ4-119" value="i = 0" style="rounded=0;whiteSpace=wrap;html=1;" parent="1" vertex="1">
          <mxGeometry x="175" y="290" width="100" height="60" as="geometry" />
        </mxCell>
        <mxCell id="jPC34qyZusBdzCv74OJ4-121" value="&lt;font style=&quot;font-size: 15px;&quot;&gt;да&lt;/font&gt;" style="text;strokeColor=none;fillColor=none;html=1;fontSize=24;fontStyle=1;verticalAlign=middle;align=center;" parent="1" vertex="1">
          <mxGeometry x="230" y="164" width="100" height="40" as="geometry" />
        </mxCell>
        <mxCell id="jPC34qyZusBdzCv74OJ4-122" value="&lt;font style=&quot;font-size: 15px;&quot;&gt;нет&lt;/font&gt;" style="text;strokeColor=none;fillColor=none;html=1;fontSize=24;fontStyle=1;verticalAlign=middle;align=center;" parent="1" vertex="1">
          <mxGeometry x="195" y="210" width="100" height="40" as="geometry" />
        </mxCell>
        <mxCell id="jPC34qyZusBdzCv74OJ4-126" value="" style="edgeStyle=orthogonalEdgeStyle;rounded=0;orthogonalLoop=1;jettySize=auto;html=1;" parent="1" source="jPC34qyZusBdzCv74OJ4-123" target="jPC34qyZusBdzCv74OJ4-117" edge="1">
          <mxGeometry relative="1" as="geometry" />
        </mxCell>
        <mxCell id="jPC34qyZusBdzCv74OJ4-128" value="" style="edgeStyle=orthogonalEdgeStyle;rounded=0;orthogonalLoop=1;jettySize=auto;html=1;" parent="1" source="jPC34qyZusBdzCv74OJ4-123" target="jPC34qyZusBdzCv74OJ4-125" edge="1">
          <mxGeometry relative="1" as="geometry" />
        </mxCell>
        <mxCell id="jPC34qyZusBdzCv74OJ4-123" value="i &amp;lt; *len?" style="rhombus;whiteSpace=wrap;html=1;" parent="1" vertex="1">
          <mxGeometry x="175" y="410" width="100" height="60" as="geometry" />
        </mxCell>
        <mxCell id="jPC34qyZusBdzCv74OJ4-132" value="" style="edgeStyle=orthogonalEdgeStyle;rounded=0;orthogonalLoop=1;jettySize=auto;html=1;" parent="1" source="jPC34qyZusBdzCv74OJ4-125" target="jPC34qyZusBdzCv74OJ4-131" edge="1">
          <mxGeometry relative="1" as="geometry" />
        </mxCell>
        <mxCell id="7YhquJX5A3a1QaRtrN8Z-3" style="edgeStyle=orthogonalEdgeStyle;rounded=0;orthogonalLoop=1;jettySize=auto;html=1;entryX=1;entryY=0.5;entryDx=0;entryDy=0;" edge="1" parent="1" source="jPC34qyZusBdzCv74OJ4-125" target="jPC34qyZusBdzCv74OJ4-133">
          <mxGeometry relative="1" as="geometry">
            <mxPoint x="305" y="920" as="targetPoint" />
            <Array as="points">
              <mxPoint x="295" y="560" />
              <mxPoint x="295" y="920" />
            </Array>
          </mxGeometry>
        </mxCell>
        <mxCell id="jPC34qyZusBdzCv74OJ4-125" value="&lt;font style=&quot;font-size: 10px;&quot;&gt;intFlComp(&lt;br&gt;(*arr)[i])?&lt;/font&gt;" style="rhombus;whiteSpace=wrap;html=1;" parent="1" vertex="1">
          <mxGeometry x="175" y="530" width="100" height="60" as="geometry" />
        </mxCell>
        <mxCell id="jPC34qyZusBdzCv74OJ4-127" value="&lt;font style=&quot;font-size: 15px;&quot;&gt;нет&lt;/font&gt;" style="text;strokeColor=none;fillColor=none;html=1;fontSize=24;fontStyle=1;verticalAlign=middle;align=center;" parent="1" vertex="1">
          <mxGeometry x="232" y="402" width="100" height="40" as="geometry" />
        </mxCell>
        <mxCell id="jPC34qyZusBdzCv74OJ4-129" value="&lt;font style=&quot;font-size: 15px;&quot;&gt;да&lt;/font&gt;" style="text;strokeColor=none;fillColor=none;html=1;fontSize=24;fontStyle=1;verticalAlign=middle;align=center;" parent="1" vertex="1">
          <mxGeometry x="190" y="450" width="100" height="40" as="geometry" />
        </mxCell>
        <mxCell id="jPC34qyZusBdzCv74OJ4-140" value="" style="edgeStyle=orthogonalEdgeStyle;rounded=0;orthogonalLoop=1;jettySize=auto;html=1;" parent="1" source="jPC34qyZusBdzCv74OJ4-131" target="jPC34qyZusBdzCv74OJ4-138" edge="1">
          <mxGeometry relative="1" as="geometry" />
        </mxCell>
        <mxCell id="jPC34qyZusBdzCv74OJ4-131" value="removeElem (arr, len, i)" style="shape=process;whiteSpace=wrap;html=1;backgroundOutline=1;" parent="1" vertex="1">
          <mxGeometry x="175" y="650" width="100" height="60" as="geometry" />
        </mxCell>
        <mxCell id="jPC34qyZusBdzCv74OJ4-135" style="edgeStyle=orthogonalEdgeStyle;rounded=0;orthogonalLoop=1;jettySize=auto;html=1;entryX=0.5;entryY=0;entryDx=0;entryDy=0;" parent="1" source="jPC34qyZusBdzCv74OJ4-133" target="jPC34qyZusBdzCv74OJ4-123" edge="1">
          <mxGeometry relative="1" as="geometry">
            <mxPoint x="65" y="380" as="targetPoint" />
            <Array as="points">
              <mxPoint x="155" y="920" />
              <mxPoint x="155" y="380" />
              <mxPoint x="225" y="380" />
            </Array>
          </mxGeometry>
        </mxCell>
        <mxCell id="jPC34qyZusBdzCv74OJ4-133" value="i += 1" style="rounded=0;whiteSpace=wrap;html=1;" parent="1" vertex="1">
          <mxGeometry x="175" y="890" width="100" height="60" as="geometry" />
        </mxCell>
        <mxCell id="7YhquJX5A3a1QaRtrN8Z-2" value="" style="edgeStyle=orthogonalEdgeStyle;rounded=0;orthogonalLoop=1;jettySize=auto;html=1;" edge="1" parent="1" source="jPC34qyZusBdzCv74OJ4-138" target="jPC34qyZusBdzCv74OJ4-133">
          <mxGeometry relative="1" as="geometry" />
        </mxCell>
        <mxCell id="jPC34qyZusBdzCv74OJ4-138" value="i -= 1" style="rounded=0;whiteSpace=wrap;html=1;" parent="1" vertex="1">
          <mxGeometry x="175" y="770" width="100" height="60" as="geometry" />
        </mxCell>
        <mxCell id="jPC34qyZusBdzCv74OJ4-142" value="&lt;font style=&quot;font-size: 15px;&quot;&gt;нет&lt;/font&gt;" style="text;strokeColor=none;fillColor=none;html=1;fontSize=24;fontStyle=1;verticalAlign=middle;align=center;" parent="1" vertex="1">
          <mxGeometry x="195" y="570" width="100" height="40" as="geometry" />
        </mxCell>
        <mxCell id="jPC34qyZusBdzCv74OJ4-143" value="&lt;font style=&quot;font-size: 15px;&quot;&gt;да&lt;/font&gt;" style="text;strokeColor=none;fillColor=none;html=1;fontSize=24;fontStyle=1;verticalAlign=middle;align=center;" parent="1" vertex="1">
          <mxGeometry x="232" y="520" width="100" height="40" as="geometry" />
        </mxCell>
        <mxCell id="jPC34qyZusBdzCv74OJ4-144" value="1" style="text;strokeColor=none;fillColor=none;html=1;fontSize=24;fontStyle=1;verticalAlign=middle;align=center;" parent="1" vertex="1">
          <mxGeometry x="170" width="100" height="40" as="geometry" />
        </mxCell>
        <mxCell id="jPC34qyZusBdzCv74OJ4-145" value="2" style="text;strokeColor=none;fillColor=none;html=1;fontSize=24;fontStyle=1;verticalAlign=middle;align=center;" parent="1" vertex="1">
          <mxGeometry x="330" width="100" height="40" as="geometry" />
        </mxCell>
        <mxCell id="jPC34qyZusBdzCv74OJ4-147" value="D" style="text;strokeColor=none;fillColor=none;html=1;fontSize=24;fontStyle=1;verticalAlign=middle;align=center;" parent="1" vertex="1">
          <mxGeometry x="90" y="420" width="100" height="40" as="geometry" />
        </mxCell>
        <mxCell id="jPC34qyZusBdzCv74OJ4-148" value="C" style="text;strokeColor=none;fillColor=none;html=1;fontSize=24;fontStyle=1;verticalAlign=middle;align=center;" parent="1" vertex="1">
          <mxGeometry x="90" y="300" width="100" height="40" as="geometry" />
        </mxCell>
        <mxCell id="jPC34qyZusBdzCv74OJ4-149" value="B" style="text;strokeColor=none;fillColor=none;html=1;fontSize=24;fontStyle=1;verticalAlign=middle;align=center;" parent="1" vertex="1">
          <mxGeometry x="90" y="180" width="100" height="40" as="geometry" />
        </mxCell>
        <mxCell id="jPC34qyZusBdzCv74OJ4-150" value="A" style="text;strokeColor=none;fillColor=none;html=1;fontSize=24;fontStyle=1;verticalAlign=middle;align=center;" parent="1" vertex="1">
          <mxGeometry x="90" y="60" width="100" height="40" as="geometry" />
        </mxCell>
        <mxCell id="jPC34qyZusBdzCv74OJ4-151" value="E" style="text;strokeColor=none;fillColor=none;html=1;fontSize=24;fontStyle=1;verticalAlign=middle;align=center;" parent="1" vertex="1">
          <mxGeometry x="90" y="540" width="100" height="40" as="geometry" />
        </mxCell>
        <mxCell id="jPC34qyZusBdzCv74OJ4-152" value="F" style="text;strokeColor=none;fillColor=none;html=1;fontSize=24;fontStyle=1;verticalAlign=middle;align=center;" parent="1" vertex="1">
          <mxGeometry x="90" y="660" width="100" height="40" as="geometry" />
        </mxCell>
        <mxCell id="7YhquJX5A3a1QaRtrN8Z-4" value="G" style="text;strokeColor=none;fillColor=none;html=1;fontSize=24;fontStyle=1;verticalAlign=middle;align=center;" vertex="1" parent="1">
          <mxGeometry x="90" y="780" width="100" height="40" as="geometry" />
        </mxCell>
        <mxCell id="7YhquJX5A3a1QaRtrN8Z-5" value="H" style="text;strokeColor=none;fillColor=none;html=1;fontSize=24;fontStyle=1;verticalAlign=middle;align=center;" vertex="1" parent="1">
          <mxGeometry x="90" y="900" width="100" height="40" as="geometry" />
        </mxCell>
        <mxCell id="7YhquJX5A3a1QaRtrN8Z-6" value="I" style="text;strokeColor=none;fillColor=none;html=1;fontSize=24;fontStyle=1;verticalAlign=middle;align=center;" vertex="1" parent="1">
          <mxGeometry x="90" y="1020" width="100" height="40" as="geometry" />
        </mxCell>
      </root>
    </mxGraphModel>
  </diagram>
</mxfile>
